<?xml version="1.0" encoding="UTF-8" standalone="no" ?>
<!DOCTYPE svg PUBLIC "-//W3C//DTD SVG 1.1//EN" "http://www.w3.org/Graphics/SVG/1.1/DTD/svg11.dtd">
<svg xmlns="http://www.w3.org/2000/svg" xmlns:xlink="http://www.w3.org/1999/xlink" version="1.1" width="1080" height="1080" viewBox="0 0 1080 1080" xml:space="preserve">
<desc>Created with Fabric.js 5.2.4</desc>
<defs>
</defs>
<g transform="matrix(1 0 0 1 540 540)" id="b4f513c7-0b80-410d-821b-3c9829b3f2d4"  >
<rect style="stroke: none; stroke-width: 1; stroke-dasharray: none; stroke-linecap: butt; stroke-dashoffset: 0; stroke-linejoin: miter; stroke-miterlimit: 4; fill: rgb(255,255,255); fill-rule: nonzero; opacity: 1; visibility: hidden;" vector-effect="non-scaling-stroke"  x="-540" y="-540" rx="0" ry="0" width="1080" height="1080" />
</g>
<g transform="matrix(1 0 0 1 540 540)" id="a86793fb-5980-47f7-9976-4d30acf60f6b"  >
</g>
<g transform="matrix(5.52 0 0 5.52 536.77 530.67)"  >
<path style="stroke: none; stroke-width: 1; stroke-dasharray: none; stroke-linecap: butt; stroke-dashoffset: 0; stroke-linejoin: miter; stroke-miterlimit: 4; fill: rgb(0,0,0); fill-opacity: 0; fill-rule: nonzero; opacity: 1;" vector-effect="non-scaling-stroke"  transform=" translate(1.1, 30.5)" d="M -71.7 -95 L 69.5 -95 L 69.5 34 L -71.7 34 z" stroke-linecap="round" />
</g>
<g transform="matrix(5.52 0 0 5.52 515.84 812.23)"  >
<path style="stroke: none; stroke-width: 1; stroke-dasharray: none; stroke-linecap: butt; stroke-dashoffset: 0; stroke-linejoin: miter; stroke-miterlimit: 4; fill: rgb(29,145,232); fill-rule: nonzero; opacity: 1;" vector-effect="non-scaling-stroke"  transform=" translate(4.9, -20.55)" d="M 18.8 7.1 L -26.7 7.1 C -28.5 7.1 -30.099999999999998 8.1 -31 9.6 L -41.8 29.200000000000003 C -42.699999999999996 30.700000000000003 -42.099999999999994 32.7 -40.5 33.6 C -40 33.9 -39.5 34 -39 34 L 19 34 C 26.1 34 32 28.5 32.4 21.4 C 32.9 13.499999999999998 26.599999999999998 7.099999999999998 18.799999999999997 7.099999999999998 z" stroke-linecap="round" />
</g>
<g transform="matrix(5.52 0 0 5.52 377.03 530.61)"  >
<path style="stroke: none; stroke-width: 1; stroke-dasharray: none; stroke-linecap: butt; stroke-dashoffset: 0; stroke-linejoin: miter; stroke-miterlimit: 4; fill: rgb(255,64,114); fill-rule: nonzero; opacity: 1;" vector-effect="non-scaling-stroke"  transform=" translate(30.06, 30.51)" d="M 5.3 -93 C -1 -96.9 -9.399999999999999 -95 -13.2 -88.7 C -13.2 -88.60000000000001 -13.2 -88.60000000000001 -13.299999999999999 -88.60000000000001 L -69.7 13.399999999999991 C -73.60000000000001 19.699999999999992 -71.7 27.999999999999993 -65.4 31.999999999999993 C -63.300000000000004 33.29999999999999 -60.800000000000004 33.99999999999999 -58.300000000000004 33.99999999999999 C -53.6 33.99999999999999 -49.300000000000004 31.599999999999994 -46.900000000000006 27.599999999999994 L 9.499999999999993 -74.4 C 13.499999999999993 -80.80000000000001 11.599999999999993 -89.10000000000001 5.299999999999993 -93 z" stroke-linecap="round" />
</g>
<g transform="matrix(5.52 0 0 5.52 745.66 620.57)"  >
<path style="stroke: none; stroke-width: 1; stroke-dasharray: none; stroke-linecap: butt; stroke-dashoffset: 0; stroke-linejoin: miter; stroke-miterlimit: 4; fill: rgb(38,205,242); fill-rule: nonzero; opacity: 1;" vector-effect="non-scaling-stroke"  transform=" translate(-36.77, 14.2)" d="M 67.5 13.5 L 43.6 -29.5 C 39.7 -35.7 31.3 -37.7 25.1 -33.8 C 18.900000000000002 -29.999999999999996 16.900000000000002 -21.799999999999997 20.6 -15.499999999999996 L 44.5 27.600000000000005 C 46.9 31.600000000000005 51.2 34.00000000000001 55.9 34.00000000000001 C 62.199999999999996 34.00000000000001 67.6 29.700000000000006 69.1 23.700000000000006 C 69.89999999999999 20.100000000000005 69.3 16.60000000000001 67.5 13.500000000000007 z M 17.4 -62.4 C 9.999999999999998 -62.4 4.099999999999998 -56.4 4.099999999999998 -49.099999999999994 C 4.099999999999998 -41.79999999999999 10.099999999999998 -35.8 17.4 -35.8 C 24.799999999999997 -35.8 30.7 -41.8 30.7 -49.099999999999994 C 30.9 -56.39999999999999 24.9 -62.39999999999999 17.4 -62.39999999999999 z" stroke-linecap="round" />
</g>
<g transform="matrix(5.52 0 0 5.52 1843.38 646.49)"  >
<path style="stroke: none; stroke-width: 1; stroke-dasharray: none; stroke-linecap: butt; stroke-dashoffset: 0; stroke-linejoin: miter; stroke-miterlimit: 4; fill: rgb(255,255,255); fill-rule: nonzero; opacity: 1;" vector-effect="non-scaling-stroke"  transform=" translate(-235.81, 9.5)" d="M 359.3 -41.7 C 357.3 -41.7 355.6 -41 354.2 -39.7 C 352.9 -38.300000000000004 352.2 -36.6 352.2 -34.6 L 352.2 -34.4 C 351.5 -35 350.8 -35.699999999999996 349.9 -36.3 C 347.79999999999995 -37.9 345.4 -39.199999999999996 342.5 -40.199999999999996 C 339.7 -41.199999999999996 336.6 -41.699999999999996 333.2 -41.699999999999996 C 327.9 -41.699999999999996 323.2 -40.3 318.8 -37.49999999999999 C 314.5 -34.699999999999996 311.1 -30.89999999999999 308.5 -25.999999999999993 C 305.9 -21.099999999999994 304.7 -15.399999999999993 304.7 -8.999999999999993 C 304.7 -2.5999999999999925 306 3.000000000000007 308.5 7.900000000000006 C 311 12.800000000000004 314.5 16.700000000000006 318.9 19.400000000000006 C 323.29999999999995 22.200000000000006 328.2 23.600000000000005 333.59999999999997 23.600000000000005 C 336.59999999999997 23.600000000000005 339.29999999999995 23.100000000000005 341.9 22.100000000000005 C 344.4 21.100000000000005 346.7 19.900000000000006 348.5 18.500000000000004 C 349.9 17.500000000000004 351.1 16.400000000000002 352 15.300000000000004 C 352 17.300000000000004 352.7 18.900000000000006 354 20.300000000000004 C 355.3 21.700000000000003 357 22.400000000000006 359.1 22.400000000000006 C 361.1 22.400000000000006 362.8 21.700000000000006 364.20000000000005 20.300000000000004 C 365.50000000000006 18.900000000000006 366.20000000000005 17.200000000000003 366.20000000000005 15.200000000000005 L 366.20000000000005 -34.599999999999994 C 366.20000000000005 -36.699999999999996 365.50000000000006 -38.39999999999999 364.20000000000005 -39.8 C 363.00000000000006 -41.099999999999994 361.30000000000007 -41.699999999999996 359.30000000000007 -41.699999999999996 z M 350.6 1 C 349.1 4 347.1 6.3 344.5 8.1 C 341.9 9.799999999999999 338.9 10.7 335.4 10.7 C 332 10.7 329 9.799999999999999 326.5 8.1 C 323.9 6.3999999999999995 321.9 4 320.5 1 C 319 -2 318.3 -5.3 318.3 -9 C 318.3 -12.8 319 -16.1 320.5 -19.1 C 321.9 -22.1 324 -24.400000000000002 326.5 -26.200000000000003 C 329.1 -27.900000000000002 332.1 -28.800000000000004 335.4 -28.800000000000004 C 338.9 -28.800000000000004 341.9 -27.900000000000006 344.5 -26.200000000000003 C 347.1 -24.5 349.1 -22.1 350.6 -19.1 C 352 -16.1 352.8 -12.700000000000001 352.8 -9.000000000000002 C 352.8 -5.300000000000002 352.1 -2.0000000000000018 350.6 0.9999999999999982 z M 88.3 -64.7 C 86.3 -64.7 84.6 -64 83.2 -62.7 C 81.8 -61.300000000000004 81.10000000000001 -59.6 81.10000000000001 -57.6 L 81.10000000000001 15.100000000000001 C 81.10000000000001 17.1 81.80000000000001 18.8 83.10000000000001 20.200000000000003 C 84.4 21.600000000000005 86.10000000000001 22.300000000000004 88.00000000000001 22.300000000000004 C 90.00000000000001 22.300000000000004 91.70000000000002 21.600000000000005 93.10000000000001 20.200000000000003 C 94.5 18.8 95.10000000000001 17.1 95.10000000000001 15.100000000000003 L 95.10000000000001 -57.6 C 95.10000000000001 -59.6 94.50000000000001 -61.300000000000004 93.2 -62.7 C 92 -64 90.4 -64.7 88.3 -64.7 z M 388.9 -60.9 C 387.79999999999995 -61.8 385.9 -62.199999999999996 383.09999999999997 -62.199999999999996 C 380.59999999999997 -62.199999999999996 378.7 -61.8 377.49999999999994 -60.99999999999999 C 376.2999999999999 -60.19999999999999 375.69999999999993 -58.599999999999994 375.69999999999993 -56.29999999999999 L 375.69999999999993 -54.09999999999999 C 375.69999999999993 -51.899999999999984 376.19999999999993 -50.399999999999984 377.29999999999995 -49.499999999999986 C 378.4 -48.59999999999999 380.29999999999995 -48.19999999999999 382.9 -48.19999999999999 C 385.59999999999997 -48.19999999999999 387.5 -48.59999999999999 388.7 -49.39999999999999 C 389.9 -50.19999999999999 390.5 -51.79999999999999 390.5 -53.99999999999999 L 390.5 -56.199999999999996 C 390.6 -58.49999999999999 390 -60.099999999999994 388.9 -60.9 z M 150.5 -37.6 C 145.7 -40.4 140.3 -41.800000000000004 134.3 -41.800000000000004 C 128.3 -41.800000000000004 123.00000000000001 -40.400000000000006 118.10000000000001 -37.6 C 113.30000000000001 -34.800000000000004 109.4 -31 106.50000000000001 -26.1 C 103.60000000000002 -21.200000000000003 102.20000000000002 -15.500000000000002 102.20000000000002 -9.100000000000001 C 102.20000000000002 -2.700000000000001 103.60000000000002 2.9999999999999982 106.50000000000001 7.899999999999999 C 109.4 12.799999999999999 113.20000000000002 16.599999999999998 118.10000000000001 19.4 C 122.9 22.099999999999998 128.3 23.5 134.3 23.5 C 140.3 23.5 145.70000000000002 22.1 150.5 19.4 C 155.29999999999998 16.699999999999996 159.2 12.799999999999999 162 7.899999999999999 C 164.9 2.9999999999999982 166.3 -2.700000000000001 166.3 -9.100000000000001 C 166.3 -15.500000000000002 164.9 -21.200000000000003 162 -26.1 C 159.2 -30.900000000000002 155.3 -34.8 150.5 -37.6 z M 149.8 1.2999999999999972 C 148.20000000000002 4.1999999999999975 146.10000000000002 6.499999999999997 143.4 8.199999999999998 C 140.70000000000002 9.799999999999997 137.70000000000002 10.699999999999998 134.4 10.699999999999998 C 131.1 10.699999999999998 128.1 9.899999999999997 125.4 8.199999999999998 C 122.7 6.599999999999998 120.5 4.299999999999997 118.9 1.2999999999999972 C 117.30000000000001 -1.6000000000000028 116.5 -5.100000000000003 116.5 -9.000000000000004 C 116.5 -13.000000000000004 117.3 -16.500000000000004 118.9 -19.400000000000006 C 120.50000000000001 -22.300000000000008 122.7 -24.600000000000005 125.4 -26.300000000000004 C 128.1 -27.900000000000006 131.1 -28.800000000000004 134.4 -28.800000000000004 C 137.70000000000002 -28.800000000000004 140.70000000000002 -28.000000000000004 143.4 -26.300000000000004 C 146.1 -24.700000000000003 148.20000000000002 -22.400000000000006 149.8 -19.400000000000006 C 151.4 -16.500000000000007 152.20000000000002 -13.000000000000005 152.20000000000002 -9.000000000000005 C 152.20000000000002 -5.100000000000005 151.4 -1.7000000000000055 149.8 1.2999999999999954 z M 225.5 -41.7 C 223.5 -41.7 221.8 -41 220.4 -39.7 C 219.1 -38.300000000000004 218.4 -36.6 218.4 -34.6 L 218.4 -33.300000000000004 C 217.5 -34.300000000000004 216.4 -35.400000000000006 215.1 -36.400000000000006 C 213.1 -38.00000000000001 210.7 -39.300000000000004 208 -40.300000000000004 C 205.3 -41.300000000000004 202.2 -41.800000000000004 198.9 -41.800000000000004 C 193.5 -41.800000000000004 188.6 -40.400000000000006 184.20000000000002 -37.6 C 179.80000000000004 -34.8 176.3 -31 173.70000000000002 -26.1 C 171.10000000000002 -21.200000000000003 169.8 -15.500000000000002 169.8 -9.100000000000001 C 169.8 -2.700000000000001 171.10000000000002 2.8999999999999986 173.70000000000002 7.799999999999997 C 176.3 12.699999999999998 179.8 16.599999999999998 184.3 19.299999999999997 C 188.8 22.099999999999998 193.8 23.499999999999996 199.4 23.499999999999996 C 202.20000000000002 23.499999999999996 204.9 22.999999999999996 207.4 21.999999999999996 C 209.9 20.999999999999996 212.1 19.799999999999997 213.9 18.399999999999995 C 215.70000000000002 16.999999999999993 217.20000000000002 15.599999999999994 218.3 14.099999999999994 C 218.4 13.999999999999995 218.4 13.899999999999995 218.5 13.899999999999995 L 218.5 19.599999999999994 C 218.5 23.799999999999994 217.1 26.999999999999993 214.3 29.399999999999995 C 211.50000000000003 31.799999999999997 207.10000000000002 32.89999999999999 201.20000000000002 32.89999999999999 C 199.60000000000002 32.89999999999999 197.70000000000002 32.599999999999994 195.50000000000003 31.999999999999993 C 193.30000000000004 31.39999999999999 191.40000000000003 30.799999999999994 189.50000000000003 29.999999999999993 C 187.70000000000002 29.299999999999994 186.40000000000003 28.799999999999994 185.60000000000002 28.599999999999994 C 183.90000000000003 27.999999999999993 182.20000000000002 28.099999999999994 180.70000000000002 28.899999999999995 C 179.10000000000002 29.699999999999996 178.00000000000003 31.299999999999994 177.3 33.49999999999999 C 176.8 35.199999999999996 176.9 36.89999999999999 177.8 38.39999999999999 C 178.70000000000002 39.89999999999999 180.3 41.19999999999999 182.70000000000002 42.19999999999999 C 183.9 42.69999999999999 185.60000000000002 43.19999999999999 187.9 43.69999999999999 C 190.2 44.19999999999999 192.6 44.69999999999999 195.1 45.09999999999999 C 197.6 45.499999999999986 199.6 45.69999999999999 201.2 45.69999999999999 C 206.7 45.69999999999999 211.79999999999998 44.79999999999999 216.6 42.89999999999999 C 221.4 40.99999999999999 225.29999999999998 38.099999999999994 228.2 33.99999999999999 C 231.1 29.89999999999999 232.6 24.39999999999999 232.6 17.599999999999994 L 232.6 -34.800000000000004 C 232.6 -36.900000000000006 231.9 -38.6 230.6 -40.00000000000001 C 229.2 -41.10000000000001 227.6 -41.70000000000001 225.5 -41.70000000000001 z M 216.8 1 C 215.3 4 213.20000000000002 6.3 210.60000000000002 8.1 C 207.90000000000003 9.799999999999999 204.8 10.7 201.20000000000002 10.7 C 197.70000000000002 10.7 194.60000000000002 9.799999999999999 191.9 8.1 C 189.2 6.4 187.2 4 185.7 1 C 184.2 -2 183.5 -5.3 183.5 -9 C 183.5 -12.8 184.2 -16.1 185.7 -19.1 C 187.2 -22.1 189.29999999999998 -24.400000000000002 191.89999999999998 -26.200000000000003 C 194.59999999999997 -27.900000000000002 197.7 -28.800000000000004 201.2 -28.800000000000004 C 204.79999999999998 -28.800000000000004 207.89999999999998 -27.900000000000006 210.6 -26.200000000000003 C 213.3 -24.5 215.29999999999998 -22.1 216.79999999999998 -19.1 C 218.29999999999998 -16.1 219 -12.7 219 -9 C 219 -5.300000000000001 218.3 -2 216.8 1 z M 285.5 -37.6 C 280.7 -40.4 275.3 -41.800000000000004 269.3 -41.800000000000004 C 263.3 -41.800000000000004 258 -40.400000000000006 253.10000000000002 -37.6 C 248.3 -34.800000000000004 244.40000000000003 -31 241.60000000000002 -26.1 C 238.70000000000002 -21.200000000000003 237.3 -15.500000000000002 237.3 -9.100000000000001 C 237.3 -2.700000000000001 238.70000000000002 2.9999999999999982 241.60000000000002 7.899999999999999 C 244.50000000000003 12.799999999999999 248.3 16.599999999999998 253.10000000000002 19.4 C 257.90000000000003 22.099999999999998 263.3 23.5 269.3 23.5 C 275.3 23.5 280.7 22.1 285.5 19.4 C 290.3 16.7 294.2 12.799999999999999 297 7.899999999999999 C 299.9 2.9999999999999982 301.3 -2.700000000000001 301.3 -9.100000000000001 C 301.3 -15.500000000000002 299.90000000000003 -21.200000000000003 297 -26.1 C 294.1 -30.900000000000002 290.3 -34.8 285.5 -37.6 z M 284.8 1.2999999999999972 C 283.2 4.1999999999999975 281 6.499999999999997 278.3 8.199999999999998 C 275.6 9.799999999999997 272.6 10.699999999999998 269.3 10.699999999999998 C 266 10.699999999999998 263 9.899999999999997 260.3 8.199999999999998 C 257.6 6.599999999999998 255.4 4.299999999999997 253.8 1.2999999999999972 C 252.20000000000002 -1.6000000000000028 251.4 -5.100000000000003 251.4 -9.000000000000004 C 251.4 -13.000000000000004 252.20000000000002 -16.500000000000004 253.8 -19.400000000000006 C 255.4 -22.300000000000004 257.6 -24.600000000000005 260.3 -26.300000000000004 C 263 -27.900000000000006 266 -28.800000000000004 269.3 -28.800000000000004 C 272.6 -28.800000000000004 275.6 -28.000000000000004 278.3 -26.300000000000004 C 281 -24.700000000000003 283.2 -22.400000000000006 284.8 -19.400000000000006 C 286.40000000000003 -16.500000000000007 287.2 -13.000000000000005 287.2 -9.000000000000005 C 287.2 -5.100000000000005 286.4 -1.7000000000000055 284.8 1.2999999999999954 z M 383.2 -40.6 C 381.2 -40.6 379.5 -39.9 378.09999999999997 -38.6 C 376.79999999999995 -37.2 376.09999999999997 -35.5 376.09999999999997 -33.5 L 376.09999999999997 15.100000000000001 C 376.09999999999997 17.1 376.79999999999995 18.8 378.09999999999997 20.200000000000003 C 379.4 21.600000000000005 381.09999999999997 22.300000000000004 383.2 22.300000000000004 C 385.3 22.300000000000004 386.9 21.600000000000005 388.3 20.200000000000003 C 389.6 18.800000000000004 390.3 17.1 390.3 15.100000000000003 L 390.3 -33.5 C 390.3 -35.5 389.6 -37.2 388.3 -38.6 C 386.90000000000003 -39.9 385.2 -40.6 383.2 -40.6 z" stroke-linecap="round" />
</g>
</svg>